# This file uses centimeters as units for non-parametric coordinates.

v 0.500000 0.050948 -0.866025
v -0.500000 0.050948 -0.866026
v -1.000000 0.050948 0.000000
v -0.500000 0.050948 0.866025
v 0.500000 0.050948 0.866025
v 1.000000 0.050948 0.000000
v 0.000000 0.050948 0.000000
vt 0.932987 0.259550
vt 0.931595 0.758718
vt 0.499221 0.507926
vt 0.498608 1.007097
vt 0.067013 0.756307
vt 0.068405 0.257139
vt 0.501392 0.008760
vn 0.000000 1.000000 0.000000
vn 0.000000 1.000000 0.000000
vn 0.000000 1.000000 0.000000
vn 0.000000 1.000000 0.000000
vn 0.000000 1.000000 0.000000
vn 0.000000 1.000000 0.000000
vn 0.000000 1.000000 0.000000
vn 0.000000 1.000000 0.000000
vn 0.000000 1.000000 0.000000
vn 0.000000 1.000000 0.000000
vn 0.000000 1.000000 0.000000
vn 0.000000 1.000000 0.000000
vn 0.000000 1.000000 0.000000
vn 0.000000 1.000000 0.000000
vn 0.000000 1.000000 0.000000
vn 0.000000 1.000000 0.000000
vn 0.000000 1.000000 0.000000
vn 0.000000 1.000000 0.000000
f 1/1/1 2/2/2 7/3/3
f 2/2/4 3/4/5 7/3/6
f 3/4/7 4/5/8 7/3/9
f 4/5/10 5/6/11 7/3/12
f 5/6/13 6/7/14 7/3/15
f 6/7/16 1/1/17 7/3/18
