# This file uses centimeters as units for non-parametric coordinates.

v 0.500000 0.050948 -0.866025
v -0.500000 0.050948 -0.866026
v -1.000000 0.050948 0.000000
v -0.500000 0.050948 0.866025
v 0.500000 0.050948 0.866025
v 1.000000 0.050948 0.000000
v 0.000000 0.050948 0.000000
vt 0.928518 0.255471
vt 0.927141 0.748973
vt 0.499229 0.501027
vt 0.498622 0.994533
vt 0.071482 0.746589
vt 0.072859 0.253087
vt 0.501378 0.007527
vn 0.000000 1.000000 0.000000
vn 0.000000 1.000000 0.000000
vn 0.000000 1.000000 0.000000
vn 0.000000 1.000000 0.000000
vn 0.000000 1.000000 0.000000
vn 0.000000 1.000000 0.000000
vn 0.000000 1.000000 0.000000
vn 0.000000 1.000000 0.000000
vn 0.000000 1.000000 0.000000
vn 0.000000 1.000000 0.000000
vn 0.000000 1.000000 0.000000
vn 0.000000 1.000000 0.000000
vn 0.000000 1.000000 0.000000
vn 0.000000 1.000000 0.000000
vn 0.000000 1.000000 0.000000
vn 0.000000 1.000000 0.000000
vn 0.000000 1.000000 0.000000
vn 0.000000 1.000000 0.000000
f 1/1/1 2/2/2 7/3/3
f 2/2/4 3/4/5 7/3/6
f 3/4/7 4/5/8 7/3/9
f 4/5/10 5/6/11 7/3/12
f 5/6/13 6/7/14 7/3/15
f 6/7/16 1/1/17 7/3/18
